<svg width="45" height="33" fill="none" xmlns="http://www.w3.org/2000/svg"><path d="M10.5 24.75a2.25 2.25 0 100 4.5 2.25 2.25 0 000-4.5zm0 3a.75.75 0 110-1.5.75.75 0 010 1.5zm24-3a2.25 2.25 0 100 4.5 2.25 2.25 0 000-4.5zm0 3a.75.75 0 110-1.5.75.75 0 010 1.5z" fill="#C4C4C4"/><path d="M44.428 14.074l-5.166-5.818a2.25 2.25 0 00-1.687-.756H30.75V3A2.252 2.252 0 0028.5.75H2.25A2.252 2.252 0 000 3v19.5a.75.75 0 00.75.75h.75v2.25a2.252 2.252 0 002.25 2.25h1.56a5.243 5.243 0 0010.38 0h13.62a5.243 5.243 0 0010.38 0h3.06A2.252 2.252 0 0045 25.5v-9.93c0-.552-.204-1.084-.572-1.496zM1.5 21.75V3a.75.75 0 01.75-.75H28.5a.75.75 0 01.75.75v18.75H1.5zm3.81 4.5H3.75A.75.75 0 013 25.5v-2.25h3.833a5.236 5.236 0 00-1.523 3zm5.19 4.5a3.75 3.75 0 110-7.5 3.75 3.75 0 010 7.5zm7.5-4.5h-2.31a5.236 5.236 0 00-1.523-3H18v3zm6.75 0H19.5v-3h5.25v3zm4.56 0h-3.06v-3h4.583a5.237 5.237 0 00-1.523 3zm5.19 4.5a3.75 3.75 0 110-7.5 3.75 3.75 0 010 7.5zm9-5.25a.75.75 0 01-.75.75h-3.06a5.254 5.254 0 00-5.19-4.5h-3.75V9h3v7.5A2.252 2.252 0 0036 18.75h7.5v6.75zm0-8.25H36a.75.75 0 01-.75-.75V9h2.325c.215-.001.42.09.564.25l5.169 5.821a.752.752 0 01.192.499v1.68z" fill="#C4C4C4"/></svg>