<svg width="48" height="48" fill="none" xmlns="http://www.w3.org/2000/svg"><circle cx="24" cy="24" r="18" fill="#337D5A"/><circle cx="24" cy="24" r="24" fill="#93B474" fill-opacity=".15"/><g clip-path="url(#clip0_302_22)" fill="#fff"><path d="M33.183 23.084v-2.811c0-.953-.666-1.728-1.507-1.804l-2.349-4.56a1.652 1.652 0 00-.99-.847 1.468 1.468 0 00-1.231.183l-8.054 5.21h-1.415c-.902 0-1.636.815-1.636 1.818v10.909c0 1.003.734 1.818 1.636 1.818h13.91c.902 0 1.636-.815 1.636-1.818V28.37c.475-.188.818-.688.818-1.28v-2.727c0-.592-.343-1.092-.818-1.28zm-5.665-9.053a.723.723 0 01.607-.091.82.82 0 01.492.422l.797 1.547a2.57 2.57 0 01-1.14.273c-.88 0-1.684-.443-2.225-1.202l1.469-.95zm-2.18 1.409c.695 1.04 1.763 1.651 2.935 1.651.531 0 1.058-.139 1.547-.395l.906 1.759H20.678l4.66-3.015zm7.026 15.742c0 .501-.367.909-.818.909H17.637c-.45 0-.818-.408-.818-.91V20.274c0-.501.367-.91.818-.91h13.91c.45 0 .817.409.817.91V23H29.91c-1.354 0-2.455 1.224-2.455 2.727 0 1.504 1.101 2.728 2.455 2.728h2.454v2.727zm.819-4.091c0 .25-.184.454-.41.454H29.91c-.903 0-1.637-.815-1.637-1.818 0-1.002.734-1.818 1.637-1.818h2.863c.226 0 .41.204.41.455v2.727z"/><path d="M29.909 24.818c-.451 0-.818.408-.818.91 0 .5.367.908.818.908.451 0 .818-.407.818-.909 0-.5-.367-.909-.818-.909z"/></g><defs><clipPath id="clip0_302_22"><path fill="#fff" transform="translate(16 13)" d="M0 0h18v20H0z"/></clipPath></defs></svg>