<svg width="48" height="48" fill="none" xmlns="http://www.w3.org/2000/svg"><circle cx="24" cy="24" r="18" fill="#337D5A"/><circle cx="24" cy="24" r="24" fill="#93B474" fill-opacity=".15"/><g clip-path="url(#clip0_302_8)"><path d="M15.604 18.302a.775.775 0 00-.013.114v.781c.001.322.201.61.503.723v1.15a.723.723 0 00.689.72v6.642a.723.723 0 00-.689.72v1.146a.783.783 0 00-.503.73v.764c0 .142.116.258.259.258h17.41a.258.258 0 00.259-.258v-.765c0-.323-.2-.613-.503-.73v-1.152a.723.723 0 00-.688-.72V21.79a.723.723 0 00.688-.72v-1.15a.775.775 0 00.503-.723v-.776a.75.75 0 00-.012-.113.257.257 0 00.208-.47l-9.042-4.753a.258.258 0 00-.24 0l-9.042 4.747a.258.258 0 00.212.47zm1.006 2.066v-.398h2.978v.394l-2.978.004zm6.63 1.423v6.64a.723.723 0 00-.688.72v1.098h-2.451v-1.098a.723.723 0 00-.689-.72V21.79a.723.723 0 00.689-.72v-1.1h2.448v1.099c0 .385.303.702.688.72l.004.002zm-.172-1.423v-.398h2.978v.394l-2.978.004zm6.63 1.423v6.64a.723.723 0 00-.688.72v1.098h-2.451v-1.098a.723.723 0 00-.689-.72V21.79a.723.723 0 00.689-.72v-1.1h2.448v1.099c0 .385.303.702.688.72l.004.002zm-.172-1.423v-.398h2.978v.394l-2.977.004zm2.978 9.487v.394h-2.981v-.394h2.981zm-6.458 0v.394h-2.981v-.394h2.981zm-2.55-8.577h-.224a.206.206 0 01-.207-.206v-.188h2.978v.188a.207.207 0 01-.207.206h-2.34zm1.86.517v6.633h-1.603v-6.633h1.603zm-1.86 7.15h2.34c.114 0 .207.092.207.206v.188h-2.978v-.188c0-.114.092-.206.206-.206h.224zm-3.911.91v.394h-2.978v-.394h2.978zm-2.978-8.778v-.193h2.978v.188a.206.206 0 01-.207.206h-2.57a.207.207 0 01-.201-.208v.007zm2.29.723v6.628h-1.602v-6.633l1.601.005zm-2.29 7.357c0-.115.092-.207.206-.207h2.565c.114 0 .207.092.207.207v.187h-2.978v-.188zm16.396 1.88v.507H16.104v-.506c0-.148.12-.267.267-.267h16.366c.145 0 .264.116.266.261v.006zm-.502-1.88v.187h-2.978v-.188c0-.114.092-.206.207-.206h2.57c.11.003.198.091.2.201v.006zm-2.29-.724v-6.638h1.603v6.633l-1.603.005zm2.29-7.356a.206.206 0 01-.207.207h-2.563a.206.206 0 01-.206-.207v-.193h2.977l-.001.193zm-7.947-7.475l7.689 4.041H16.864l7.689-4.041zm-8.45 4.82a.26.26 0 01.259-.259h16.382c.143 0 .258.116.258.258v.782a.258.258 0 01-.258.258H16.363a.258.258 0 01-.259-.258v-.782z" fill="#fff"/></g><defs><clipPath id="clip0_302_8"><path fill="#fff" transform="translate(14 14)" d="M0 0h19v19H0z"/></clipPath></defs></svg>