<svg width="55" height="55" viewBox="0 0 55 55" fill="none" xmlns="http://www.w3.org/2000/svg">
<ellipse cx="27.45" cy="27.5" rx="27.45" ry="27.5" fill="white" fill-opacity="0.5"/>
<ellipse cx="27.4498" cy="27.5" rx="22.4591" ry="22.5" fill="#93B474"/>
<g clip-path="url(#clip0_201_448)">
<path d="M36.3038 35.3004L31.9402 30.9289C33.0219 29.6078 33.6738 27.9156 33.6738 26.0713C33.6738 21.8408 30.2474 18.4082 26.0246 18.4082C21.7982 18.4082 18.3755 21.8408 18.3755 26.0713C18.3755 30.3018 21.7982 33.7344 26.0246 33.7344C27.8656 33.7344 29.551 33.085 30.8697 32.0014L35.2333 36.3691C35.5296 36.666 36.0074 36.666 36.3038 36.3691C36.6001 36.076 36.6001 35.5936 36.3038 35.3004ZM26.0246 32.2092C22.6427 32.2092 19.8942 29.4557 19.8942 26.0713C19.8942 22.6869 22.6427 19.9297 26.0246 19.9297C29.4029 19.9297 32.1551 22.6869 32.1551 26.0713C32.1551 29.4557 29.4029 32.2092 26.0246 32.2092Z" fill="white"/>
</g>
<defs>
<clipPath id="clip0_201_448">
<rect width="18.9655" height="19" fill="white" transform="translate(17.9673 18)"/>
</clipPath>
</defs>
</svg>
