<svg width="55" height="55" fill="none" xmlns="http://www.w3.org/2000/svg"><ellipse cx="27.45" cy="27.5" rx="27.45" ry="27.5" fill="#fff" fill-opacity=".5"/><ellipse cx="27.45" cy="27.5" rx="22.459" ry="22.5" fill="#93B474"/><g clip-path="url(#clip0_201_448)"><path d="M36.304 35.3l-4.364-4.37a7.644 7.644 0 001.734-4.858c0-4.23-3.427-7.663-7.65-7.663-4.226 0-7.649 3.433-7.649 7.663s3.423 7.663 7.65 7.663a7.6 7.6 0 004.845-1.733l4.363 4.368a.755.755 0 001.07 0 .754.754 0 000-1.069zm-10.28-3.09c-3.381 0-6.13-2.754-6.13-6.139 0-3.384 2.749-6.141 6.13-6.141 3.379 0 6.131 2.757 6.131 6.141 0 3.385-2.752 6.138-6.13 6.138z" fill="#fff"/></g><defs><clipPath id="clip0_201_448"><path fill="#fff" transform="translate(17.967 18)" d="M0 0h18.965v19H0z"/></clipPath></defs></svg>