<svg width="31" height="31" fill="none" xmlns="http://www.w3.org/2000/svg"><circle cx="15.5" cy="15.5" r="15.5" fill="#337D5A"/><g clip-path="url(#clip0_162_40)" fill="#fff"><path d="M11.81 25v-.344c0-.866-.001-1.732.002-2.598 0-.098-.033-.155-.125-.188-.176-.063-.351-.132-.53-.189-1.066-.336-1.799-1.035-2.313-1.974-.281-.516-.451-1.069-.581-1.635a11.04 11.04 0 01-.259-2.787c.018-.607.068-1.21.162-1.81.073-.472.14-.948.25-1.414.256-1.09.87-1.96 1.793-2.624.567-.406 1.197-.691 1.863-.904a10.822 10.822 0 011.672-.374c.808-.123 1.62-.18 2.436-.154.499.017.999.053 1.496.1a13.6 13.6 0 012.093.356c.659.17 1.286.413 1.862.77 1.002.619 1.624 1.501 1.929 2.607.192.696.319 1.404.384 2.121.07.769.071 1.537.024 2.307-.029.456-.066.91-.146 1.36-.158.875-.424 1.715-.884 2.488-.348.582-.845 1.023-1.445 1.358a6.088 6.088 0 01-1.675.605c-.463.101-.931.161-1.404.198-1.065.08-2.13.113-3.199.14a.168.168 0 00-.103.04c-.641.681-1.327 1.32-2.005 1.965-.19.182-.382.364-.577.542a.142.142 0 01-.092.036c-.207.003-.413.001-.628.001zm.76-1.122c.026-.023.042-.035.055-.05.227-.215.457-.426.68-.646.412-.403.82-.81 1.225-1.22a.94.94 0 01.66-.289c.755-.029 1.511-.052 2.265-.081a14.36 14.36 0 001.852-.173c.597-.101 1.173-.262 1.711-.537.6-.306 1.067-.744 1.372-1.334a7.13 7.13 0 00.705-2.198 13.77 13.77 0 00.14-1.806 12.525 12.525 0 00-.177-2.472 9 9 0 00-.322-1.322 3.422 3.422 0 00-1.272-1.734c-.495-.354-1.047-.596-1.633-.77-.49-.144-.992-.238-1.497-.314a18.001 18.001 0 00-1.571-.168 13.68 13.68 0 00-2.246.042c-.583.06-1.159.148-1.726.29-.693.175-1.35.429-1.954.81-.88.555-1.455 1.325-1.679 2.323-.103.459-.17.927-.243 1.392a13.47 13.47 0 00-.149 1.712c-.019.696.022 1.389.141 2.075.084.482.197.958.369 1.418.201.538.484 1.027.908 1.432.296.284.628.515 1.03.644.24.077.474.17.71.262.174.066.334.154.455.297.146.172.193.374.193.593v1.749l-.001.075z"/><path d="M18.419 20.194a1.405 1.405 0 01-.494-.115c-1.206-.496-2.325-1.133-3.33-1.953a11.511 11.511 0 01-2.428-2.734c-.388-.602-.683-1.244-.938-1.906-.05-.127-.116-.248-.142-.379-.119-.616.116-1.095.626-1.458a1.93 1.93 0 01.749-.311c.26-.052.48.035.668.206.37.336.689.713.954 1.132.124.194.237.396.343.599.159.303.103.56-.16.787-.1.084-.207.163-.308.246-.348.288-.427.574-.259.987.25.619.643 1.14 1.164 1.574.398.33.845.582 1.33.772.343.136.64.011.85-.28.097-.135.197-.265.338-.359.26-.172.539-.172.824-.073.192.066.362.174.524.29.373.27.751.536 1.12.812.17.128.3.291.332.508a.809.809 0 01-.079.444c-.216.483-.578.831-1.065 1.057-.25.122-.384.154-.619.154zm-1.956-9.609c1.158.006 2.21.443 3.048 1.338.565.605.902 1.32 1.014 2.13.067.47.045.94-.06 1.405-.04.177-.16.29-.327.303-.176.014-.34-.075-.403-.22a.407.407 0 01-.013-.25c.202-.963.022-1.853-.58-2.646-.553-.725-1.302-1.152-2.223-1.286a3.543 3.543 0 00-1.248.051.358.358 0 01-.43-.278.35.35 0 01.264-.438c.285-.07.576-.1.958-.109z"/><path d="M19.438 14.622c-.017.148-.03.32-.057.492-.032.2-.203.314-.422.289-.203-.023-.343-.18-.329-.377.01-.136.035-.271.037-.408.01-.964-.627-1.81-1.578-2.09a2.258 2.258 0 00-1.024-.063c-.356.062-.514-.25-.444-.482a.331.331 0 01.277-.24c1.04-.163 1.94.114 2.683.838.46.448.729.996.819 1.623.02.13.025.261.038.418z"/><path d="M16.413 12.805c.924.013 1.725.698 1.849 1.575.016.116.027.236.013.35-.026.197-.196.31-.415.292a.35.35 0 01-.336-.348 1.087 1.087 0 00-.192-.637c-.23-.325-.551-.487-.957-.494-.164-.003-.29-.068-.351-.219a.367.367 0 01.078-.417.39.39 0 01.31-.102z"/></g><defs><clipPath id="clip0_162_40"><path fill="#fff" transform="translate(8 8)" d="M0 0h16v17H0z"/></clipPath></defs></svg>