<svg width="29" height="24" fill="none" xmlns="http://www.w3.org/2000/svg"><path d="M22.574 23.255L21.2 6.271a.645.645 0 00-.643-.594h-3.684v-.816C16.874 2.18 14.722 0 12.042 0h-.085c-2.68 0-4.89 2.18-4.89 4.86v.817H3.44a.645.645 0 00-.643.594L1.42 23.303a.645.645 0 00.643.697h19.872a.645.645 0 00.638-.745zM8.358 4.861c0-1.969 1.63-3.57 3.599-3.57h.085c1.968 0 3.541 1.601 3.541 3.57v.816H8.358v-.816z" fill="#337D5A"/><circle cx="21.5" cy="7.5" r="7.5" fill="#93B474"/><path d="M21.712 10.096c-.459 0-.87-.112-1.232-.336a2.338 2.338 0 01-.856-.992c-.208-.432-.312-.955-.312-1.568 0-.613.104-1.136.312-1.568.208-.432.493-.76.856-.984a2.25 2.25 0 011.232-.344c.464 0 .875.115 1.232.344.363.224.648.552.856.984.208.432.312.955.312 1.568 0 .613-.104 1.136-.312 1.568a2.338 2.338 0 01-.856.992 2.27 2.27 0 01-1.232.336zm0-1.096a.906.906 0 00.568-.184c.165-.123.293-.317.384-.584.096-.267.144-.61.144-1.032 0-.421-.048-.765-.144-1.032-.09-.267-.219-.461-.384-.584a.906.906 0 00-.568-.184.928.928 0 00-.568.184c-.16.123-.288.317-.384.584-.09.267-.136.61-.136 1.032 0 .421.045.765.136 1.032.096.267.224.461.384.584a.928.928 0 00.568.184z" fill="#fff"/></svg>