<svg width="31" height="31" viewBox="0 0 31 31" fill="none" xmlns="http://www.w3.org/2000/svg">
<circle cx="15.5" cy="15.5" r="15.5" fill="#337D5A"/>
<g clip-path="url(#clip0_162_40)">
<path d="M11.8105 24.9991C11.8105 24.879 11.8105 24.7682 11.8105 24.6558C11.8105 23.7904 11.8089 22.9236 11.8121 22.0583C11.8121 21.9597 11.7787 21.9027 11.6867 21.8704C11.5105 21.8073 11.3359 21.738 11.1565 21.681C10.0914 21.3454 9.3581 20.6463 8.84381 19.7071C8.56286 19.1913 8.39302 18.6385 8.26286 18.0719C8.05175 17.1543 7.97873 16.2243 8.00413 15.285C8.02159 14.6784 8.07239 14.0748 8.16604 13.4759C8.23905 13.0032 8.30572 12.5274 8.41524 12.0609C8.67239 10.9708 9.28508 10.1008 10.2089 9.43721C10.7756 9.03072 11.4057 8.74587 12.0724 8.53339C12.6168 8.35941 13.1771 8.24547 13.7438 8.15924C14.5517 8.03607 15.3644 7.9791 16.1803 8.00527C16.6787 8.02221 17.1787 8.05762 17.6756 8.10535C18.3819 8.1731 19.0819 8.28396 19.7692 8.46103C20.4279 8.6304 21.0549 8.87367 21.6311 9.23089C22.6327 9.84985 23.2549 10.7321 23.5597 11.8376C23.7517 12.5336 23.8787 13.2418 23.9438 13.9594C24.0137 14.7277 24.0152 15.496 23.9676 16.2658C23.939 16.7216 23.9025 17.1758 23.8216 17.6254C23.6644 18.5015 23.3978 19.3407 22.9375 20.1136C22.5898 20.6956 22.093 21.1375 21.493 21.4716C20.9692 21.7626 20.4041 21.9489 19.8184 22.0767C19.3549 22.1784 18.8867 22.2384 18.4137 22.2754C17.3486 22.3554 16.2835 22.3878 15.2152 22.4155C15.1803 22.417 15.1343 22.4309 15.1121 22.4555C14.4708 23.1361 13.7851 23.775 13.1073 24.4202C12.9168 24.6019 12.7248 24.7836 12.5295 24.9622C12.5073 24.9837 12.4692 24.9976 12.4375 24.9976C12.2311 25.0007 12.0248 24.9991 11.8105 24.9991ZM12.5708 23.8782C12.5962 23.8551 12.6121 23.8428 12.6248 23.8289C12.8517 23.6134 13.0819 23.4024 13.3057 23.1822C13.7168 22.7788 14.1248 22.3724 14.5295 21.9613C14.7121 21.7765 14.9311 21.6826 15.1898 21.6733C15.9454 21.6441 16.701 21.621 17.4549 21.5917C18.0756 21.5671 18.6946 21.524 19.3073 21.4193C19.9041 21.3177 20.4803 21.1575 21.0184 20.8819C21.6184 20.5755 22.0851 20.1382 22.3898 19.5485C22.7486 18.8541 22.9756 18.1181 23.0946 17.3498C23.1867 16.7509 23.2216 16.1473 23.2343 15.5437C23.2533 14.7154 23.2025 13.8901 23.0581 13.0725C22.9787 12.6244 22.8819 12.181 22.7359 11.7499C22.4978 11.0447 22.0835 10.4596 21.4644 10.0161C20.9692 9.66201 20.4168 9.42027 19.8311 9.24628C19.3406 9.10155 18.8391 9.00763 18.3343 8.93218C17.8121 8.85519 17.2883 8.79515 16.7629 8.76435C16.0137 8.7197 15.2644 8.7274 14.5168 8.80592C13.9343 8.86597 13.3581 8.95374 12.7914 9.09693C12.0978 9.27092 11.4406 9.52497 10.8375 9.90528C9.95651 10.4611 9.38191 11.231 9.1581 12.2287C9.05493 12.6875 8.98826 13.1556 8.91524 13.6206C8.82794 14.1888 8.78032 14.76 8.76604 15.3328C8.74699 16.0287 8.78826 16.7216 8.90731 17.4083C8.99143 17.8902 9.10413 18.366 9.27556 18.8264C9.47715 19.3638 9.75969 19.8534 10.1835 20.2583C10.4803 20.5416 10.8121 20.7726 11.2137 20.9019C11.4533 20.9789 11.6883 21.0728 11.9248 21.1637C12.0978 21.2299 12.2581 21.3177 12.3787 21.4608C12.5248 21.6333 12.5724 21.835 12.5724 22.0536C12.5724 22.6372 12.5724 23.2192 12.5724 23.8028C12.5708 23.8228 12.5708 23.8443 12.5708 23.8782Z" fill="white"/>
<path d="M18.419 20.1943C18.2746 20.1927 18.0968 20.1496 17.9254 20.0788C16.719 19.583 15.6 18.9456 14.5952 18.1264C13.6333 17.3427 12.8302 16.4266 12.1667 15.3919C11.7794 14.7899 11.4841 14.1478 11.2286 13.4857C11.1794 13.3595 11.1127 13.2378 11.0873 13.107C10.9683 12.4911 11.2032 12.0122 11.7127 11.6488C11.9365 11.4902 12.1905 11.3917 12.4619 11.3378C12.7222 11.2855 12.9429 11.3732 13.1302 11.5441C13.5 11.8798 13.819 12.257 14.0841 12.6758C14.2079 12.8698 14.3206 13.0715 14.427 13.2748C14.5857 13.5781 14.5302 13.8352 14.2667 14.0616C14.1667 14.1463 14.0603 14.2248 13.9587 14.3079C13.6111 14.5959 13.5317 14.8822 13.7 15.2949C13.9508 15.9139 14.3429 16.4358 14.8635 16.8685C15.2619 17.1995 15.7095 17.4505 16.1937 17.6414C16.5365 17.7769 16.8349 17.6522 17.0444 17.3612C17.1413 17.2257 17.2413 17.0964 17.3825 17.0024C17.6429 16.83 17.9206 16.83 18.2064 16.9285C18.3984 16.9947 18.5683 17.1025 18.7302 17.2195C19.1032 17.489 19.481 17.7554 19.8492 18.031C20.0206 18.1588 20.1492 18.322 20.1825 18.5391C20.2048 18.6946 20.1651 18.8409 20.1032 18.9825C19.8873 19.466 19.5254 19.814 19.0381 20.0403C18.7889 20.1619 18.654 20.1943 18.419 20.1943Z" fill="white"/>
<path d="M16.4635 10.585C17.6206 10.5911 18.673 11.0284 19.5111 11.923C20.0762 12.5281 20.4127 13.2425 20.5254 14.0524C20.5921 14.5236 20.5698 14.9932 20.4651 15.4582C20.4254 15.6352 20.3048 15.7476 20.1381 15.7615C19.9619 15.7753 19.7984 15.686 19.7349 15.5413C19.7 15.4597 19.7048 15.3766 19.7222 15.2919C19.9238 14.328 19.7445 13.4381 19.1413 12.6451C18.5889 11.9199 17.8397 11.4934 16.9191 11.3594C16.5 11.2978 16.0857 11.324 15.6714 11.4102C15.4683 11.4518 15.2857 11.3302 15.2413 11.1316C15.1937 10.9268 15.3016 10.7436 15.5048 10.6943C15.7905 10.6235 16.081 10.5942 16.4635 10.585Z" fill="white"/>
<path d="M19.4381 14.6224C19.4206 14.7702 19.4079 14.9426 19.381 15.1135C19.3492 15.3137 19.1778 15.4276 18.9587 15.403C18.7556 15.3799 18.6159 15.2228 18.6302 15.0258C18.6397 14.8903 18.6651 14.7548 18.6667 14.6177C18.6778 13.6539 18.0397 12.8086 17.0889 12.5283C16.754 12.4298 16.4111 12.4067 16.0651 12.4652C15.7095 12.5268 15.5508 12.2158 15.6206 11.9833C15.6619 11.8493 15.7587 11.7662 15.8984 11.7431C16.9381 11.5799 17.8381 11.857 18.581 12.5807C19.0413 13.0287 19.3095 13.5769 19.4 14.2035C19.4191 14.3344 19.4254 14.4653 19.4381 14.6224Z" fill="white"/>
<path d="M16.4127 12.8052C17.3365 12.8175 18.1381 13.5027 18.2619 14.3804C18.2778 14.4958 18.2889 14.6159 18.2746 14.7299C18.2492 14.927 18.0794 15.0394 17.8603 15.0224C17.6683 15.0086 17.527 14.8654 17.5238 14.6744C17.5222 14.4435 17.4667 14.2279 17.3318 14.037C17.1016 13.7121 16.781 13.5504 16.3746 13.5428C16.2111 13.5397 16.0841 13.475 16.0238 13.3241C15.9635 13.1717 15.9841 13.0285 16.1016 12.9068C16.1905 12.8191 16.3016 12.7991 16.4127 12.8052Z" fill="white"/>
</g>
<defs>
<clipPath id="clip0_162_40">
<rect width="16" height="17" fill="white" transform="translate(8 8)"/>
</clipPath>
</defs>
</svg>
