<svg width="31" height="31" viewBox="0 0 31 31" fill="none" xmlns="http://www.w3.org/2000/svg">
<circle cx="15.5" cy="15.5" r="15.5" fill="#337D5A"/>
<g clip-path="url(#clip0_162_55)">
<path d="M23 15.307C23 19.3423 19.7033 22.6136 15.6357 22.6136C14.3449 22.6136 13.1324 22.2834 12.0769 21.7053L8 23L9.32895 19.0787C8.65885 17.9782 8.27293 16.6859 8.27293 15.3066C8.27342 11.2713 11.5691 8 15.6367 8C19.7038 8.00098 23 11.2718 23 15.307ZM15.6352 9.1651C12.2216 9.1651 9.44488 11.9208 9.44488 15.3085C9.44488 16.6526 9.88313 17.897 10.6242 18.9094L9.85134 21.1902L12.2295 20.4345C13.2077 21.0763 14.3782 21.45 15.6352 21.45C19.0488 21.45 21.8266 18.6947 21.8266 15.307C21.8276 11.9208 19.0493 9.1651 15.6352 9.1651ZM19.3546 16.9901C19.3086 16.9163 19.1882 16.8713 19.0083 16.7813C18.8287 16.6913 17.94 16.2584 17.7752 16.1997C17.6089 16.1395 17.4885 16.1092 17.3682 16.2887C17.2494 16.4682 16.9031 16.8713 16.7969 16.9916C16.6918 17.1114 16.5866 17.1266 16.4061 17.0381C16.2256 16.9471 15.6436 16.7593 14.9539 16.1493C14.4173 15.6739 14.0549 15.0884 13.9502 14.9089C13.8441 14.7299 13.9394 14.633 14.029 14.544C14.1097 14.4633 14.2094 14.3347 14.2999 14.2295C14.3904 14.1253 14.4203 14.0515 14.4804 13.9316C14.5396 13.8118 14.5098 13.7076 14.4653 13.6171C14.4203 13.5271 14.0598 12.6467 13.9086 12.2882C13.7585 11.9301 13.6083 11.9893 13.5027 11.9893C13.3975 11.9893 13.2772 11.9746 13.1568 11.9746C13.0365 11.9746 12.8409 12.0182 12.676 12.1977C12.5112 12.3772 12.0446 12.8101 12.0446 13.6915C12.0446 14.5738 12.6907 15.4244 12.7812 15.5438C12.8722 15.6626 14.0304 17.5306 15.8651 18.2477C17.7008 18.9642 17.7008 18.725 18.0315 18.6947C18.3631 18.6644 19.0997 18.2618 19.2494 17.8441C19.4 17.4245 19.4 17.065 19.3546 16.9901Z" fill="white"/>
</g>
<defs>
<clipPath id="clip0_162_55">
<rect width="15" height="15" fill="white" transform="translate(8 8)"/>
</clipPath>
</defs>
</svg>
