<svg width="70" height="73" fill="none" xmlns="http://www.w3.org/2000/svg"><path d="M69.774 39.738c.544 3.41.06 6.705-.969 9.826-1.029 3.295-2.542 6.416-4.842 9.19-3.026 3.7-6.476 6.937-11.075 8.96-1.453.636-2.845 1.56-4.358 2.023-1.816.578-3.57 1.33-5.508 1.387-.302 0-.665-.057-.907.058-3.33 1.272-6.84.81-10.229.752-1.937-.058-3.873-.81-5.81-1.099-3.692-.635-6.96-2.254-10.047-4.103-2.421-1.388-4.72-3.064-6.658-5.087-1.936-2.081-3.752-4.277-5.144-6.705-1.513-2.601-2.542-5.318-3.329-8.208-1.21-4.104-.908-8.266-.726-12.37.12-2.485.968-4.97 1.937-7.34 1.936-4.567 4.78-8.613 8.533-12.081 1.09-.983 2.24-1.792 3.33-2.717.241-.173.483-.52.544-.809.726-4.624 3.57-7.63 7.807-9.71C24.744.49 27.286-.146 30.01.027c2.118.174 4.176.636 6.113 1.619 2.844 1.445 5.75 2.832 8.655 4.277 2.3 1.098 4.539 2.428 6.9 3.295 2.36.867 4.296 2.543 6.838 3.005 1.695 1.677 4.6 1.561 5.992 3.815-.787 1.503-2.542 1.676-3.873 2.139-2.724.925-5.447 1.792-8.05 2.774-3.631 1.388-7.323 2.544-10.894 3.93-2.36.926-4.782 1.85-7.202 2.602-2.724.867-5.569.925-8.413.52-2.482-.347-4.66-1.503-6.476-2.948-1.816-1.445-3.51-3.179-4.176-5.433-1.15-.751-.545-2.023-.908-3.064-1.453.058-2.24 1.04-2.966 1.908-1.634 1.965-3.329 3.988-4.66 6.185-1.816 2.6-2.845 5.433-3.329 8.497-.242 1.734-.666 3.468-.787 5.202-.181 1.907.485 3.757.727 5.664.302 2.081.907 3.989 1.694 5.896 1.513 3.584 3.692 6.763 6.537 9.537 3.692 3.642 7.989 6.359 13.012 7.861 1.937.579 3.934 1.099 6.053 1.33 2.178.231 4.357.404 6.476.289 4.72-.347 9.26-1.33 13.557-3.468 2.966-1.503 5.629-3.295 7.989-5.55 2.905-2.774 5.084-6.01 6.415-9.71.787-2.196 1.453-4.45 1.514-6.82.06-.925.302-1.792.363-2.717.12-1.56.665-1.792 2.179-1.156l.363.173c.12 0 .12.058.12.058zm-52.11-25.837h-1.211c-.121 1.85.484 3.41 1.15 4.913 1.513 3.294 4.055 5.549 7.625 6.705 2.18.693 4.48.925 6.598.231 4.539-1.445 8.957-3.18 13.496-4.624 2.905-.925 5.75-2.139 8.716-3.006 1.997-.578 3.873-1.503 5.931-2.312-.363-.289-.545-.52-.847-.636C50.89 11.3 42.599 7.427 34.428 3.438c-1.755-.809-3.631-1.098-5.386-1.098-1.574 0-3.269.347-4.903 1.04-3.45 1.504-5.87 3.642-6.96 7.168-.242.867-.484 1.56-.242 2.543h3.026c.424.983 1.634-.115 2.179.867-1.574-.057-3.026-.057-4.479-.057z" fill="#fff"/><path d="M50.346 47.887c-3.147.058-5.326-1.214-6.84-3.815-2.3-3.988-.302-8.843 4.298-10.23 3.873-1.156 7.807.058 9.865 3.526.666 1.156.908 2.774.726 4.103-.423 2.601-1.694 4.856-4.6 5.78-1.089.347-2.3.463-3.45.636zm-4.055-7.225c0 2.37 2.118 4.45 4.357 4.393 2.119-.058 4.237-2.254 4.237-4.45.06-2.312-1.876-4.104-4.297-4.22-2.36-.057-4.6 1.85-4.297 4.277zM17.3 36.733v2.254h6.415c.182.404.363.636.424.867.545 1.618.182 2.138-1.513 2.138h-5.387c-.06.81-.06 1.56-.12 2.544h7.928c.363 1.04.181 1.965.242 3.12H13.548v-12.6c0-1.329.242-1.618 1.452-1.56 3.329.115 6.718.289 10.168.462v2.37c-.666.115-1.453.52-2.179.404-1.755-.288-3.57.29-5.69 0zm23.422-.868c-.726.752-1.452 1.503-2.118 2.197-2.784-2.428-4.6-1.85-6.294-.694-1.937 1.387-1.816 4.22-.727 5.606 1.695 2.139 3.995 2.254 6.96.463a71.792 71.792 0 002.361 1.965c-2.36 2.658-5.387 2.485-8.352 2.196-1.937-.231-3.45-1.503-4.358-3.121-2.3-4.22-.908-8.265 2.966-10.23 1.452-.751 3.086-.983 4.781-.81 2.724.232 3.087.463 4.781 2.428zM26.318 18.64c-.303-.52-.666-1.04-.847-1.618-1.03-2.774-1.877-2.832-3.934-2.717-1.03.058-2.119 0-3.148-.057-.242 0-.484-.232-.665-.405h4.478c-.605-.983-1.755.173-2.179-.867h2.906c1.634 0 1.815-.174 2.481-1.56.545-1.272 1.15-2.544 1.755-3.816.303-.578.727-1.04 1.09-1.56.726.404.908.693.544 1.445-.786 1.445-1.452 3.005-2.178 4.566-.182.347-.182.751-.363 1.387h4.66c.302 0 .605.231.908.347-1.453 0-2.966.058-4.66.058.786.751 1.875-.174 2.36.751h-3.268c.242 1.04.423 1.85.544 2.601-.847.347-.363 1.04-.484 1.445z" fill="#fff"/><path d="M29.526 14.709c-.485-.925-1.513 0-2.36-.752 1.694 0 3.146-.058 4.66-.058h1.15c.847.058 1.331-.23 1.634-1.098.242-.867.847-1.618 1.27-2.37.666.058.485.578.545.925a31.866 31.866 0 00-.786 2.197c0 .057.242.23.302.404.424 1.04 1.634-.173 2.179.81-.726 0-1.392-.058-2.058 0-.181 0-.363.288-.544.462.302.867.605 1.734.907 2.543v1.272l-.847-.405c-.363-.925-.605-1.907-1.029-2.774-.363-.752-.968-1.214-1.997-1.156-1.09.115-2.058.057-3.026 0z" fill="#fff"/><path d="M35.397 15.23c.181-.173.363-.462.544-.462.666-.058 1.271 0 2.058 0-.545-.983-1.755.173-2.179-.868 2.542.116 5.145.232 7.687.347-.121 1.099-1.332 0-1.634.752.423.578 1.452-.347 1.634.636-2.663-.116-5.387-.231-8.11-.405zm12.286-.462c1.573.115 3.268-.232 4.963.346-.908.925-1.514 1.214-2.542.925-1.695-.52-3.39-.232-5.084-.347h-.485v-.867c1.03-.057 2.058-.057 3.148-.057zM26.318 18.64c.12-.462-.363-1.098.484-1.329.303.52.605 1.04.847 1.619.303.751.545 1.56.848 2.485-.485.231-.969.578-1.332-.231-.302-.81-1.029-1.503-.847-2.543z" fill="#fff"/><path d="M47.683 14.767h-3.208c0-.404.06-.867-.545-.924.121-.405.182-1.098.363-1.156.848-.174.364-.52.242-.867-.06-.116.182-.347.303-.463.06-.057.303.058.363.174.847.925.303 1.792-.242 2.6.847.636 1.997-.288 2.724.636zm-3.208.868h.484c.303.867.605 1.676.847 2.542.06.232-.12.752-.363.867-.363.174-.847.116-.968-.52-.121-.693-.363-1.33-.484-2.023.605-.057.484-.52.484-.866z" fill="#fff"/><path d="M44.475 15.635c0 .347.121.81-.484.868-.121-.29-.303-.578-.424-.868-.242-.982-1.21-.115-1.634-.636.303-.751 1.513.347 1.634-.751a2.88 2.88 0 01.424-.463c.605.058.545.52.545.925-.06.347-.06.636-.06.925zm-8.171-4.278c-.06-.405.121-.867-.544-.925.181-.462.302-.924.544-1.386.363-.578.848-.463 1.392.057-.423.694-.908 1.502-1.392 2.254zm-.847 7.283l.847.405v-1.272c.303.578.666 1.156.848 1.792.06.231-.182.694-.424.751-.242.058-.726-.115-.847-.346-.242-.347-.303-.867-.424-1.33z" fill="#fff"/></svg>