<svg width="117" height="39" fill="none" xmlns="http://www.w3.org/2000/svg"><path d="M4.134.56S0 1.402 0 5.656v26.017s.46-5.241 4.134-5.241H82l-7.94-13.397L82 .56H4.134z" fill="#E1843E"/><path d="M18.82 10.571v7.1h-1.64v-2.91h-2.83v2.91h-1.64v-7.1h1.64v2.75h2.83v-2.75h1.64zm5.11 7.16a3.302 3.302 0 01-1.44-.31 3.588 3.588 0 01-1.11-.81 3.853 3.853 0 01-.72-1.16 3.702 3.702 0 01-.25-1.34 3.6 3.6 0 01.26-1.35c.18-.433.426-.813.74-1.14a3.56 3.56 0 011.13-.79c.432-.2.906-.3 1.42-.3.526 0 1.006.104 1.44.31.432.207.802.48 1.11.82a3.7 3.7 0 01.71 1.16c.166.434.25.874.25 1.32 0 .467-.09.917-.27 1.35a3.634 3.634 0 01-.73 1.15c-.314.327-.688.59-1.12.79-.434.2-.908.3-1.42.3zm-1.85-3.6c0 .274.04.54.12.8.08.254.196.48.35.68a1.724 1.724 0 001.39.66 1.695 1.695 0 001.4-.68 2.18 2.18 0 00.34-.69 2.672 2.672 0 000-1.58 1.96 1.96 0 00-.36-.68c-.16-.2-.358-.356-.59-.47-.228-.12-.49-.18-.79-.18-.314 0-.588.064-.82.19-.228.12-.42.28-.58.48-.154.2-.27.43-.35.69-.074.254-.11.514-.11.78zm12.787 1.72c0 .307-.064.574-.19.8-.127.227-.3.417-.52.57-.22.147-.477.26-.77.34-.294.074-.604.11-.93.11h-3.46v-7.1h3.95c.246 0 .47.054.67.16a1.77 1.77 0 01.83 1 1.888 1.888 0 01-.14 1.62c-.167.3-.42.527-.76.68.406.12.726.334.96.64.24.307.36.7.36 1.18zm-1.67-.33a.85.85 0 00-.19-.56.596.596 0 00-.48-.23h-1.89v1.55h1.82c.213 0 .39-.07.53-.21.14-.14.21-.323.21-.55zm-2.56-3.55v1.47h1.61c.18 0 .34-.06.48-.18.14-.12.21-.306.21-.56 0-.233-.064-.413-.19-.54a.583.583 0 00-.44-.19h-1.67zm7.544 3.15l3.34-4.55h1.22v7.1h-1.64v-4.44l-3.3 4.44h-1.27v-7.1h1.65v4.55zm12.687-4.55v7.1h-1.64v-2.91h-2.83v2.91h-1.64v-7.1h1.64v2.75h2.83v-2.75h1.64zm3.67 2.82h.37l2.07-2.82h1.85l-2.55 3.43 2.78 3.67h-1.83l-2.17-2.79h-.52v2.79h-1.64v-7.1h1.64v2.82zm7.559-2.82h1.48l2.59 7.1h-1.68l-.55-1.59h-2.21l-.54 1.59h-1.68l2.59-7.1zm1.57 4.38l-.83-2.51-.85 2.51h1.68z" fill="#fff"/></svg>