<svg width="55" height="55" fill="none" xmlns="http://www.w3.org/2000/svg"><circle cx="27.5" cy="27.5" r="27.5" fill="#fff" fill-opacity=".15"/><circle cx="27.5" cy="27.5" r="22.5" fill="#93B474"/><g clip-path="url(#clip0_241_157)"><path d="M36.37 35.3l-4.372-4.371a7.665 7.665 0 00-5.926-12.52 7.663 7.663 0 100 15.325 7.618 7.618 0 004.853-1.733l4.372 4.368a.757.757 0 101.072-1.069zm-10.3-3.09a6.146 6.146 0 01-6.141-6.139 6.149 6.149 0 016.141-6.141 6.151 6.151 0 016.142 6.141c0 3.385-2.757 6.138-6.142 6.138z" fill="#fff"/></g><defs><clipPath id="clip0_241_157"><path fill="#fff" transform="translate(18 18)" d="M0 0h19v19H0z"/></clipPath></defs></svg>