<svg width="70" height="73" viewBox="0 0 70 73" fill="none" xmlns="http://www.w3.org/2000/svg">
<path d="M69.7738 39.738C70.3185 43.1483 69.8343 46.443 68.8054 49.5643C67.7765 52.859 66.2634 55.9803 63.9635 58.7548C60.9374 62.4541 57.4875 65.691 52.8877 67.7141C51.4352 68.3499 50.0431 69.2747 48.53 69.7372C46.7143 70.3152 44.9592 71.0666 43.0224 71.1244C42.7198 71.1244 42.3566 71.0666 42.1146 71.1822C38.7858 72.4538 35.2754 71.9914 31.8861 71.9336C29.9493 71.8758 28.0126 71.1244 26.0758 70.8354C22.3839 70.1996 19.1156 68.5811 16.0289 66.7315C13.608 65.3442 11.3081 63.668 9.37137 61.6449C7.43462 59.564 5.61891 57.3676 4.22687 54.9399C2.71379 52.3388 1.68489 49.6221 0.898082 46.732C-0.312387 42.6281 -0.0097699 38.4664 0.1718 34.3624C0.292847 31.877 1.14018 29.3915 2.10855 27.0216C4.0453 22.4553 6.8899 18.4091 10.6424 14.941C11.7318 13.9584 12.8817 13.1492 13.9711 12.2243C14.2132 12.0509 14.4553 11.7041 14.5159 11.4151C15.2421 6.79097 18.0867 3.78528 22.3234 1.70441C24.7443 0.490575 27.2863 -0.145246 30.0099 0.0281598C32.1282 0.201565 34.186 0.66398 36.1227 1.64661C38.9673 3.09166 41.8725 4.4789 44.7776 5.92395C47.0775 7.02218 49.3168 8.35162 51.6773 9.21865C54.0377 10.0857 55.9744 11.7619 58.5164 12.2243C60.2111 13.9006 63.1162 13.785 64.5082 16.0393C63.7214 17.5421 61.9663 17.7155 60.6347 18.1779C57.9112 19.1028 55.1876 19.9698 52.5851 20.9524C48.9537 22.3397 45.2618 23.4957 41.6909 24.8829C39.3305 25.8078 36.9095 26.7326 34.4886 27.484C31.765 28.3511 28.9204 28.4089 26.0758 28.0042C23.5944 27.6574 21.4155 26.5014 19.5998 25.0563C17.7841 23.6113 16.0895 21.8773 15.4237 19.623C14.2738 18.8716 14.879 17.5999 14.5159 16.5595C13.0633 16.6173 12.2765 17.5999 11.5502 18.4669C9.91608 20.4322 8.22142 22.4553 6.8899 24.6517C5.0742 27.2528 4.0453 30.0851 3.56111 33.1486C3.31902 34.8827 2.89536 36.6167 2.77431 38.3508C2.59274 40.2582 3.2585 42.1079 3.50059 44.0154C3.80321 46.0962 4.40844 48.0037 5.19525 49.9111C6.70833 53.4949 8.88718 56.674 11.7318 59.4484C15.4237 63.09 19.7209 65.8066 24.7443 67.3095C26.6811 67.8875 28.6783 68.4077 30.7967 68.6389C32.9755 68.8701 35.1544 69.0435 37.2727 68.9279C41.9935 68.5811 46.5328 67.5985 50.8299 65.4598C53.7956 63.957 56.4586 62.1651 58.819 59.9109C61.7242 57.1364 63.903 53.8995 65.2345 50.2001C66.0213 48.0037 66.6871 45.7494 66.7476 43.3795C66.8081 42.4547 67.0502 41.5877 67.1107 40.6628C67.2318 39.1022 67.7765 38.871 69.2896 39.5068C69.4106 39.5646 69.5317 39.6224 69.6527 39.6802C69.7738 39.6802 69.7738 39.738 69.7738 39.738ZM17.6631 13.9006C17.2999 13.9006 16.9368 13.9006 16.4526 13.9006C16.3316 15.7503 16.9368 17.3109 17.6026 18.8138C19.1156 22.1085 21.6576 24.3627 25.2285 25.5188C27.4074 26.2124 29.7072 26.4436 31.8256 25.75C36.3648 24.3049 40.783 22.5709 45.3223 21.1258C48.2274 20.201 51.072 18.9872 54.0377 18.1201C56.035 17.5421 57.9112 16.6173 59.969 15.8081C59.6058 15.519 59.4243 15.2878 59.1217 15.1722C50.8905 11.2995 42.5987 7.42679 34.4281 3.43847C32.6729 2.62924 30.7967 2.34023 29.0415 2.34023C27.4679 2.34023 25.7732 2.68704 24.1391 3.38067C20.6893 4.88351 18.2683 7.02218 17.1789 10.5481C16.9368 11.4151 16.6947 12.1087 16.9368 13.0914C18.0262 13.0914 18.9946 13.0914 19.963 13.0914C20.3866 14.074 21.5971 12.9758 22.1418 13.9584C20.5682 13.9006 19.1156 13.9006 17.6631 13.9006Z" fill="white"/>
<path d="M50.3458 47.8871C47.1986 47.9449 45.0197 46.6733 43.5066 44.0724C41.2068 40.0844 43.204 35.2294 47.8038 33.8422C51.6773 32.6862 55.6114 33.9 57.6692 37.3679C58.3349 38.5238 58.577 40.1422 58.3954 41.4715C57.9718 44.0724 56.7008 46.3266 53.7956 47.2513C52.7062 47.5981 51.4958 47.7137 50.3458 47.8871ZM46.2907 40.6624C46.2907 43.0321 48.4091 45.1128 50.6484 45.055C52.7667 44.9972 54.8851 42.8009 54.8851 40.6046C54.9456 38.2926 53.0088 36.5009 50.5879 36.3853C48.2275 36.3275 45.9881 38.2348 46.2907 40.6624Z" fill="white"/>
<path d="M17.2998 36.7325C17.2998 37.5995 17.2998 38.2353 17.2998 38.9867C19.4787 38.9867 21.597 38.9867 23.7153 38.9867C23.8969 39.3913 24.0785 39.6225 24.139 39.8537C24.6837 41.4721 24.3206 41.9923 22.6259 41.9923C20.8707 41.9923 19.1761 41.9923 17.2393 41.9923C17.1788 42.8015 17.1788 43.5529 17.1183 44.5355C19.7813 44.5355 22.3838 44.5355 25.0468 44.5355C25.41 45.5759 25.2284 46.5007 25.2889 47.6567C23.2311 47.6567 21.2944 47.6567 19.3576 47.6567C17.4814 47.6567 15.6052 47.6567 13.5474 47.6567C13.5474 46.0961 13.5474 44.6511 13.5474 43.2639C13.5474 40.5473 13.5474 37.7729 13.5474 35.0563C13.5474 33.727 13.7895 33.438 14.9999 33.4958C18.3287 33.6114 21.718 33.7848 25.1679 33.9582C25.1679 34.7096 25.1679 35.4031 25.1679 36.3279C24.5021 36.4435 23.7153 36.8481 22.989 36.7325C21.2339 36.4435 19.4182 37.0215 17.2998 36.7325Z" fill="white"/>
<path d="M40.7225 35.8653C39.9962 36.6167 39.2699 37.368 38.6042 38.0616C35.8201 35.6341 34.0044 36.2121 32.3097 37.368C30.3729 38.7551 30.494 41.5872 31.5834 42.9743C33.2781 45.1128 35.578 45.2284 38.5436 43.4367C39.3304 44.1302 40.1172 44.766 40.9041 45.4018C38.5436 48.0604 35.5174 47.8871 32.5518 47.5981C30.615 47.3669 29.1019 46.0953 28.1941 44.477C25.8942 40.2579 27.2862 36.2121 31.1597 34.247C32.6123 33.4956 34.2465 33.2644 35.9411 33.4378C38.6647 33.669 39.0278 33.9002 40.7225 35.8653Z" fill="white"/>
<path d="M26.318 18.6404C26.0154 18.1202 25.6522 17.6 25.4706 17.0219C24.4417 14.2475 23.5944 14.1897 21.5366 14.3053C20.5077 14.3631 19.4183 14.3053 18.3894 14.2475C18.1473 14.2475 17.9052 14.0163 17.7236 13.8429C19.1762 13.8429 20.6288 13.8429 22.2024 13.8429C21.5971 12.8602 20.4472 14.0163 20.0235 12.9758C20.9919 12.9758 21.9603 12.9758 22.9287 12.9758C24.5628 12.9758 24.7444 12.8024 25.4101 11.4152C25.9548 10.1436 26.5601 8.87194 27.1653 7.60031C27.4679 7.0223 27.8916 6.55989 28.2547 6.03967C28.981 6.44428 29.1626 6.73329 28.7994 7.48471C28.0126 8.92974 27.3469 10.4904 26.6206 12.051C26.439 12.3978 26.439 12.8024 26.2575 13.4383C27.9521 13.4383 29.4047 13.4383 30.9178 13.4383C31.2204 13.4383 31.523 13.6695 31.8256 13.7851C30.3731 13.7851 28.86 13.8429 27.1653 13.8429C27.9521 14.5943 29.0415 13.6695 29.5257 14.5943C28.4968 14.5943 27.4679 14.5943 26.2575 14.5943C26.4995 15.6347 26.6811 16.4439 26.8022 17.1953C25.9548 17.5422 26.439 18.2358 26.318 18.6404Z" fill="white"/>
<path d="M29.5257 14.7086C29.0415 13.7838 28.0126 14.7086 27.1653 13.9572C28.8599 13.9572 30.3125 13.8994 31.8256 13.8994C32.1887 13.8994 32.6124 13.8994 32.9755 13.8994C33.8228 13.9572 34.307 13.6682 34.6096 12.8012C34.8517 11.9342 35.457 11.1828 35.8806 10.4314C36.5464 10.4892 36.3648 11.0094 36.4253 11.3562C36.1227 12.1076 35.8806 12.8012 35.6385 13.5526C35.6385 13.6104 35.8806 13.7838 35.9412 13.9572C36.3648 14.9976 37.5753 13.7838 38.12 14.7664C37.3937 14.7664 36.728 14.7086 36.0622 14.7664C35.8806 14.7664 35.6991 15.0554 35.5175 15.2288C35.8201 16.0957 36.1227 16.9627 36.4253 17.7719C36.4253 18.1765 36.4253 18.5811 36.4253 19.0435C36.0622 18.8701 35.8201 18.7545 35.578 18.6389C35.2149 17.7141 34.9728 16.7315 34.5491 15.8645C34.186 15.1132 33.5808 14.6508 32.5519 14.7086C31.4624 14.8242 30.4941 14.7664 29.5257 14.7086Z" fill="white"/>
<path d="M35.3965 15.2302C35.5781 15.0567 35.7596 14.7676 35.9412 14.7676C36.6069 14.7098 37.2122 14.7676 37.999 14.7676C37.4543 13.7846 36.2438 14.9411 35.8201 13.9003C38.3621 14.0159 40.9646 14.1316 43.5066 14.2472C43.3855 15.3458 42.1751 14.2472 41.8725 14.9989C42.2961 15.5771 43.325 14.652 43.5066 15.635C40.8436 15.5193 38.12 15.4037 35.3965 15.2302Z" fill="white"/>
<path d="M47.6826 14.7675C49.2562 14.883 50.9509 14.5363 52.6456 15.1141C51.7377 16.0387 51.1325 16.3276 50.1036 16.0387C48.4089 15.5186 46.7143 15.8075 45.0196 15.692C44.838 15.692 44.717 15.692 44.5354 15.692C44.5354 15.4031 44.5354 15.1141 44.5354 14.8252C45.5643 14.7675 46.5932 14.7675 47.6826 14.7675Z" fill="white"/>
<path d="M26.3179 18.6406C26.4389 18.1782 25.9547 17.5424 26.802 17.3112C27.1047 17.8314 27.4073 18.3516 27.6494 18.9296C27.952 19.681 28.1941 20.4902 28.4967 21.415C28.0125 21.6462 27.5283 21.993 27.1652 21.1838C26.8626 20.3746 26.1363 19.681 26.3179 18.6406Z" fill="white"/>
<path d="M47.6827 14.7674C46.5932 14.7674 45.5643 14.7674 44.4749 14.7674C44.4749 14.3629 44.5354 13.9005 43.9302 13.8427C44.0512 13.4381 44.1118 12.7446 44.2933 12.6868C45.1407 12.5134 44.6565 12.1667 44.5354 11.8199C44.4749 11.7043 44.717 11.4731 44.838 11.3575C44.8986 11.2997 45.1407 11.4153 45.2012 11.5309C46.0485 12.4556 45.5038 13.3226 44.9591 14.1317C45.8064 14.7674 46.9564 13.8427 47.6827 14.7674Z" fill="white"/>
<path d="M44.4749 15.6346C44.6565 15.6346 44.7775 15.6346 44.9591 15.6346C45.2617 16.5015 45.5643 17.3105 45.8064 18.1773C45.8669 18.4085 45.6853 18.9286 45.4432 19.0442C45.0801 19.2175 44.5959 19.1597 44.4749 18.5241C44.3539 17.8306 44.1118 17.1949 43.9907 16.5015C44.5959 16.4437 44.4749 15.9814 44.4749 15.6346Z" fill="white"/>
<path d="M44.4751 15.6354C44.4751 15.9824 44.5961 16.445 43.9909 16.5028C43.8699 16.2137 43.6883 15.9246 43.5672 15.6354C43.3251 14.6525 42.3568 15.5198 41.9331 14.9994C42.2357 14.2477 43.4462 15.3463 43.5672 14.2477C43.6883 14.0743 43.8093 13.9586 43.9909 13.7852C44.5961 13.843 44.5356 14.3056 44.5356 14.7103C44.4751 15.0572 44.4751 15.3463 44.4751 15.6354Z" fill="white"/>
<path d="M36.3042 11.3567C36.2437 10.9522 36.4253 10.49 35.7595 10.4322C35.9411 9.96997 36.0621 9.50773 36.3042 9.0455C36.6674 8.4677 37.1516 8.58326 37.6963 9.10327C37.2726 9.79663 36.7884 10.6055 36.3042 11.3567Z" fill="white"/>
<path d="M35.457 18.6402C35.6991 18.7558 35.9412 18.8714 36.3043 19.0448C36.3043 18.5824 36.3043 18.1778 36.3043 17.7732C36.607 18.3512 36.9701 18.9292 37.1517 19.565C37.2122 19.7962 36.9701 20.2586 36.728 20.3164C36.4859 20.3742 36.0017 20.2008 35.8807 19.9696C35.6386 19.6228 35.5781 19.1026 35.457 18.6402Z" fill="white"/>
</svg>
